<svg xmlns="http://www.w3.org/2000/svg" width="1080" height="1080" xml:space="preserve"><g><g transform="translate(539.28 539.28) scale(22.47)" clip-path="url(#a)"><clipPath id="a"><rect x="-24" y="-24" rx="0" ry="0" width="48" height="48"/></clipPath><rect style="stroke:none;stroke-width:1;stroke-dasharray:none;stroke-linecap:butt;stroke-dashoffset:0;stroke-linejoin:miter;stroke-miterlimit:4;fill:#000;fill-opacity:0;fill-rule:nonzero;opacity:1" vector-effect="non-scaling-stroke" x="-24" y="-24" rx="0" ry="0" width="48" height="48" fill="none"/></g><g transform="translate(539.28 539.28) scale(22.47)" clip-path="url(#b)"><clipPath id="b"><rect x="-24" y="-24" rx="0" ry="0" width="48" height="48"/></clipPath><path style="stroke:none;stroke-width:1;stroke-dasharray:none;stroke-linecap:butt;stroke-dashoffset:0;stroke-linejoin:miter;stroke-miterlimit:10;fill:#2e2e32;fill-rule:nonzero;opacity:1" vector-effect="non-scaling-stroke" transform="translate(-24 -24)" d="M4 0h40c2.208 0 4 1.792 4 4v40c0 2.208-1.792 4-4 4H4c-2.208 0-4-1.792-4-4V4c0-2.208 1.792-4 4-4Z"/></g><g transform="translate(539.28 539.28) scale(22.47)" clip-path="url(#c)"><clipPath id="c"><rect x="-24" y="-24" rx="0" ry="0" width="48" height="48"/></clipPath><path style="stroke:none;stroke-width:1;stroke-dasharray:none;stroke-linecap:butt;stroke-dashoffset:0;stroke-linejoin:miter;stroke-miterlimit:4;fill:#e1e1e6;fill-rule:nonzero;opacity:1" vector-effect="non-scaling-stroke" transform="translate(-24 -24)" d="M19 27V15a2 2 0 0 0-2-2h-4v17c0 2.76 2.24 5 5 5h17v-4a2 2 0 0 0-2-2H21a2 2 0 0 1-2-2Z"/></g><g transform="translate(629.16 449.4) scale(22.47)" clip-path="url(#d)"><clipPath id="d"><rect transform="translate(-4 4)" x="-24" y="-24" rx="0" ry="0" width="48" height="48"/></clipPath><path style="stroke:none;stroke-width:1;stroke-dasharray:none;stroke-linecap:butt;stroke-dashoffset:0;stroke-linejoin:miter;stroke-miterlimit:4;fill:#93ddfa;fill-rule:nonzero;opacity:1" vector-effect="non-scaling-stroke" transform="translate(-28 -20)" d="M24 22v-6l5 3 3 5h-6a2 2 0 0 1-2-2Z"/></g><g transform="translate(629.16 449.4) scale(22.47)" clip-path="url(#e)"><clipPath id="e"><rect transform="translate(-4 4)" x="-24" y="-24" rx="0" ry="0" width="48" height="48"/></clipPath><path style="stroke:none;stroke-width:1;stroke-dasharray:none;stroke-linecap:butt;stroke-dashoffset:0;stroke-linejoin:miter;stroke-miterlimit:4;fill:#ffa94d;fill-rule:nonzero;opacity:1" vector-effect="non-scaling-stroke" transform="translate(-28 -20)" d="M35 13H21l14 14V13Z"/></g><g transform="translate(629.16 449.4) scale(22.47)" clip-path="url(#f)"><clipPath id="f"><rect transform="translate(-4 4)" x="-24" y="-24" rx="0" ry="0" width="48" height="48"/></clipPath><path style="stroke:none;stroke-width:1;stroke-dasharray:none;stroke-linecap:butt;stroke-dashoffset:0;stroke-linejoin:miter;stroke-miterlimit:4;fill:#f7c95c;fill-rule:nonzero;opacity:1" vector-effect="non-scaling-stroke" transform="translate(-28 -20)" d="M32 16h-8l8 8v-8Z"/></g></g><g><path style="stroke:none;stroke-width:1;stroke-dasharray:none;stroke-linecap:butt;stroke-dashoffset:0;stroke-linejoin:miter;stroke-miterlimit:4;fill:#93ddfa;fill-rule:nonzero;opacity:1" vector-effect="non-scaling-stroke" transform="matrix(7.13 0 0 7.13 -36.77 462.26)" d="M16.583 30.762h25.945c1.457 0 2.651 1.091 2.809 2.443l-4.628 4.679c-1.3 1.249-1.924 2.913-1.924 4.577 0 .26 0 .52.052.779H28.698c-1.872 0-3.848 1.561-4.419 3.432l-8.165 28.65c-1.351-.208-2.392-1.353-2.392-2.757V33.569c.001-1.561 1.301-2.807 2.861-2.807zM56.151 43.24h-.104l.104-.052v.052z"/><path style="stroke:none;stroke-width:1;stroke-dasharray:none;stroke-linecap:butt;stroke-dashoffset:0;stroke-linejoin:miter;stroke-miterlimit:4;fill:#93ddfa;fill-rule:nonzero;opacity:1" vector-effect="non-scaling-stroke" transform="matrix(7.13 0 0 7.13 -36.77 462.26)" d="m86.153 49.011-7.957 27.973c-.52 1.664-2.287 3.068-3.951 3.068h-53.66c-1.662 0-2.651-1.404-2.182-3.068l8.007-27.973c.468-1.664 2.236-3.068 3.952-3.068h9.412c.26.417.571.781.935 1.145v.052c2.288 2.131 5.823.779 9.879-1.197h5.564v19.291c0 2.705 2.235 4.94 4.938 4.94h4.784c2.703 0 4.889-2.235 4.889-4.94V45.943h4.73c3.9 1.924 7.384 3.172 9.827 1.3l.104-.052.104-.104c.104-.104.208-.208.26-.312.47.52.623 1.353.365 2.236z"/><path style="stroke:none;stroke-width:1;stroke-dasharray:none;stroke-linecap:butt;stroke-dashoffset:0;stroke-linejoin:miter;stroke-miterlimit:4;fill:#93ddfa;fill-rule:nonzero;opacity:1" vector-effect="non-scaling-stroke" transform="matrix(7.13 0 0 7.13 -36.77 462.26)" d="M84.28 45.839c1.819-1.872 1.819-4.887 0-6.707L66.445 21.35c-1.819-1.872-4.834-1.872-6.706 0L41.957 39.132c-1.872 1.82-1.872 4.835 0 6.707 2.547 2.394 9.617-2.859 15.962-5.354v24.749c0 1.768 1.455 3.172 3.171 3.172h4.784c1.717 0 3.119-1.404 3.119-3.172V40.796c6.033 2.548 12.428 7.228 15.287 5.043z"/><path style="stroke:none;stroke-width:1;stroke-dasharray:none;stroke-linecap:butt;stroke-dashoffset:0;stroke-linejoin:miter;stroke-miterlimit:4;fill:#93ddfa;fill-rule:nonzero;opacity:1" vector-effect="non-scaling-stroke" transform="matrix(7.13 0 0 7.13 -36.77 462.26)" d="M84.28 45.839c1.819-1.872 1.819-4.887 0-6.707L66.445 21.35c-1.819-1.872-4.834-1.872-6.706 0L41.957 39.132c-1.872 1.82-1.872 4.835 0 6.707 2.547 2.394 9.617-2.859 15.962-5.354v24.749c0 1.768 1.455 3.172 3.171 3.172h4.784c1.717 0 3.119-1.404 3.119-3.172V40.796c6.033 2.548 12.428 7.228 15.287 5.043z"/></g></svg>